<svg width="24" height="24" viewBox="0 0 24 24" fill="none" xmlns="http://www.w3.org/2000/svg">
<path d="M12 0C7.2347 0 2.96329 1.848 0 4.8L12 24L24 4.8C21.0501 1.86 16.7653 0 12 0ZM5.32592 6C5.32592 4.68 6.52725 3.6 7.99555 3.6C9.46385 3.6 10.6652 4.68 10.6652 6C10.6652 7.32 9.46385 8.4 7.99555 8.4C6.52725 8.4 5.32592 7.32 5.32592 6ZM12 15.6C10.5317 15.6 9.33037 14.52 9.33037 13.2C9.33037 11.88 10.5317 10.8 12 10.8C13.4683 10.8 14.6696 11.88 14.6696 13.2C14.6696 14.52 13.4683 15.6 12 15.6Z" fill="white"/>
</svg>
